<svg id="Capa_1" data-name="Capa 1" xmlns="http://www.w3.org/2000/svg" viewBox="0 0 157.75 157.78"><defs><style>.cls-1{fill:#fefefe;}.cls-2{fill:#d0d144;}.cls-3{fill:#db5b00;}.cls-4{fill:#17cdfa;}.cls-5{fill:#3ba4fb;}</style></defs><title>!ICM 200</title><path class="cls-1" d="M7119.81,7280.06V7122.29h157.75v157.77Zm78.93-157.49c-43.44.3-78.19,34.74-78.25,78.17a78.21,78.21,0,1,0,156.42.23C7277,7157.47,7242.23,7122.91,7198.74,7122.57Z" transform="translate(-7119.81 -7122.29)"/><path class="cls-2" d="M7198.74,7122.57c43.49.34,78.24,34.9,78.17,78.4a78.21,78.21,0,1,1-156.42-.23C7120.55,7157.31,7155.3,7122.87,7198.74,7122.57Zm-7.31,31.94c-4.24,7.37-9.36,14.15-14,21.28a23.9,23.9,0,0,0-4,13.65c.23,9.59,5,16.39,13.4,20.74,10,5.4,23.81,3,31.4-5.71,5.44-6.22,7.26-13.33,4.53-21.35a96.93,96.93,0,0,0-5.49-12.79c-4.23-8.29-8.91-16.32-13.86-24.2-1.5-2.39-3.06-4.74-4.71-7.29-.6,1.41-1.1,2.52-1.56,3.66C7195.5,7146.62,7193.3,7150.49,7191.43,7154.51ZM7229.89,7264c0-4,.11-7.88,0-11.72a5.86,5.86,0,0,1,2.59-5.24c7.5-5.67,14.85-11.56,22.55-17,4.68-3.28,6.53-7.25,6.39-12.93-.3-12.19-.09-24.39-.09-36.59,0-4.2,0-8.41,0-12.61a6,6,0,0,0-5.31-6,5.67,5.67,0,0,0-6.35,4.73c-.93,5.17-1.65,10.38-2.44,15.57-.7,4.64-1.36,9.29-2.08,13.93-.17,1.08-.09,1.75,1.28,1.82a11.75,11.75,0,0,1,4,1.05c3.91,1.62,5.71,4.7,5.83,8.76a8.94,8.94,0,0,1-4.7,8.37c-3.08,1.82-6.18,3.62-9.27,5.43s-6.28,3.65-9.43,5.45c-.86.49-1.75.88-2.72.17a1.94,1.94,0,0,1-.72-2,2.54,2.54,0,0,1,1.48-1.67c2.39-1.38,4.81-2.72,7.2-4.1,3.86-2.22,7.73-4.42,11.55-6.69a5.69,5.69,0,0,0,2.82-6,5.56,5.56,0,0,0-3.61-4.59c-2.37-1-4.38,0-6.37,1.11q-14.64,8.4-29.28,16.82c-6.37,3.68-9.72,9.15-9.72,16.59,0,7.84,0,15.68,0,23.52,0,1.26-.57,2.51-.07,3.83Zm-36,0a9.9,9.9,0,0,0,.1-1c0-9.07.08-18.15,0-27.22-.09-6.73-3.27-11.84-9-15.24-6.6-3.91-13.28-7.69-19.94-11.5-3.91-2.24-7.78-4.56-11.76-6.65a5.69,5.69,0,0,0-8.26,5.12c-.06,2.93,1.57,4.61,3.89,5.93q8.88,5,17.72,10.13c.71.41,1.42.88,1.51,1.81a1.91,1.91,0,0,1-.74,1.9c-1,.76-1.94.29-2.84-.23l-18.57-10.81a9.68,9.68,0,0,1-3.92-12.26c1.75-3.94,5.12-5.38,9-5.92,1.2-.16,1.46-.61,1.3-1.68q-2.13-14.22-4.24-28.46c-.52-3.52-2.64-5.79-5.59-5.92-3.74-.15-6.39,2.51-6.39,6.46,0,17.07,0,34.14,0,51.21a10.2,10.2,0,0,0,4.31,8.81c8.19,6.12,16.3,12.35,24.46,18.52a5.83,5.83,0,0,1,2.68,5.34c-.17,2.5-.07,5-.08,7.53,0,1.37,0,2.73,0,4.17Z" transform="translate(-7119.81 -7122.29)"/><path class="cls-3" d="M7229.89,7264h-26.52c-.5-1.32.08-2.57.07-3.83,0-7.84,0-15.68,0-23.52,0-7.44,3.35-12.91,9.72-16.59q14.63-8.45,29.28-16.82c2-1.14,4-2.14,6.37-1.11a5.56,5.56,0,0,1,3.61,4.59,5.69,5.69,0,0,1-2.82,6c-3.82,2.27-7.69,4.47-11.55,6.69-2.39,1.38-4.81,2.72-7.2,4.1a2.54,2.54,0,0,0-1.48,1.67,1.94,1.94,0,0,0,.72,2c1,.71,1.86.32,2.72-.17,3.15-1.8,6.29-3.63,9.43-5.45s6.19-3.61,9.27-5.43a8.94,8.94,0,0,0,4.7-8.37c-.12-4.06-1.92-7.14-5.83-8.76a11.75,11.75,0,0,0-4-1.05c-1.37-.07-1.45-.74-1.28-1.82.72-4.64,1.38-9.29,2.08-13.93.79-5.19,1.51-10.4,2.44-15.57A5.67,5.67,0,0,1,7256,7162a6,6,0,0,1,5.31,6c.06,4.2,0,8.41,0,12.61,0,12.2-.21,24.4.09,36.59.14,5.68-1.71,9.65-6.39,12.93-7.7,5.4-15.05,11.29-22.55,17a5.86,5.86,0,0,0-2.59,5.24C7230,7256.1,7229.89,7259.94,7229.89,7264Z" transform="translate(-7119.81 -7122.29)"/><path class="cls-3" d="M7193.88,7264h-26.42c0-1.44,0-2.8,0-4.17,0-2.51-.09-5,.08-7.53a5.83,5.83,0,0,0-2.68-5.34c-8.16-6.17-16.27-12.4-24.46-18.52a10.2,10.2,0,0,1-4.31-8.81c.05-17.07,0-34.14,0-51.21,0-3.95,2.65-6.61,6.39-6.46,2.95.13,5.07,2.4,5.59,5.92q2.1,14.24,4.24,28.46c.16,1.07-.1,1.52-1.3,1.68-3.91.54-7.28,2-9,5.92a9.68,9.68,0,0,0,3.92,12.26L7164.5,7227c.9.52,1.81,1,2.84.23a1.91,1.91,0,0,0,.74-1.9c-.09-.93-.8-1.4-1.51-1.81q-8.85-5.09-17.72-10.13c-2.32-1.32-4-3-3.89-5.93a5.69,5.69,0,0,1,8.26-5.12c4,2.09,7.85,4.41,11.76,6.65,6.66,3.81,13.34,7.59,19.94,11.5,5.75,3.4,8.93,8.51,9,15.24.12,9.07,0,18.15,0,27.22A9.9,9.9,0,0,1,7193.88,7264Z" transform="translate(-7119.81 -7122.29)"/><path class="cls-4" d="M7191.43,7154.51c1.87-4,4.07-7.89,5.73-12,.46-1.14,1-2.25,1.56-3.66,1.65,2.55,3.21,4.9,4.71,7.29,4.95,7.88,9.63,15.91,13.86,24.2a96.93,96.93,0,0,1,5.49,12.79c2.73,8,.91,15.13-4.53,21.35-7.59,8.69-21.35,11.11-31.4,5.71a3.08,3.08,0,0,1,.77-1.47,38.43,38.43,0,0,0,6.47-11.76,54.31,54.31,0,0,0,2.65-25.6A52.87,52.87,0,0,0,7191.43,7154.51Z" transform="translate(-7119.81 -7122.29)"/><path class="cls-5" d="M7191.43,7154.51a52.87,52.87,0,0,1,5.31,16.84,54.31,54.31,0,0,1-2.65,25.6,38.43,38.43,0,0,1-6.47,11.76,3.08,3.08,0,0,0-.77,1.47c-8.44-4.35-13.17-11.15-13.4-20.74a23.9,23.9,0,0,1,4-13.65C7182.07,7168.66,7187.19,7161.88,7191.43,7154.51Z" transform="translate(-7119.81 -7122.29)"/></svg>