<svg xmlns="http://www.w3.org/2000/svg" viewBox="0 0 156.69 156.76"><defs><style>.a{fill:#d0d144;}.b{fill:#db5b00;}.c{fill:#17cdfa;}.d{fill:#3ba4fb;}</style></defs><title>icmb</title><path class="a" d="M7200.45,7120.73c43.56.34,78.37,35,78.31,78.53a78.35,78.35,0,0,1-156.69-.23C7122.13,7155.53,7156.94,7121,7200.45,7120.73Zm-7.32,32c-4.24,7.38-9.38,14.18-14,21.32a23.89,23.89,0,0,0-4,13.67c.23,9.6,5,16.42,13.42,20.77,10.07,5.41,23.85,3,31.46-5.71,5.44-6.24,7.27-13.36,4.53-21.4a95.8,95.8,0,0,0-5.5-12.8c-4.23-8.31-8.92-16.35-13.88-24.24-1.5-2.4-3.07-4.75-4.72-7.3-.6,1.4-1.1,2.52-1.56,3.66C7197.2,7144.81,7195,7148.69,7193.13,7152.72Zm38.53,109.65c0-4,.11-7.89,0-11.73a5.86,5.86,0,0,1,2.59-5.25c7.51-5.69,14.87-11.59,22.58-17,4.69-3.29,6.55-7.27,6.41-12.95-.3-12.21-.09-24.44-.09-36.66,0-4.21,0-8.42,0-12.63a6,6,0,0,0-5.32-6,5.69,5.69,0,0,0-6.37,4.74c-.92,5.18-1.64,10.39-2.43,15.6-.71,4.65-1.37,9.3-2.09,13.95-.17,1.08-.09,1.76,1.28,1.82a11.74,11.74,0,0,1,4,1.05c3.92,1.63,5.71,4.71,5.83,8.78a8.94,8.94,0,0,1-4.7,8.38q-4.64,2.73-9.29,5.44c-3.14,1.83-6.29,3.66-9.44,5.46-.86.49-1.75.88-2.72.17a1.92,1.92,0,0,1-.72-2.05,2.5,2.5,0,0,1,1.48-1.67c2.39-1.39,4.81-2.73,7.21-4.11,3.87-2.22,7.74-4.43,11.57-6.71a5.69,5.69,0,0,0,2.83-6,5.6,5.6,0,0,0-3.62-4.6c-2.37-1-4.39,0-6.38,1.11q-14.67,8.41-29.33,16.85c-6.38,3.68-9.74,9.17-9.74,16.62,0,7.85,0,15.71,0,23.56,0,1.26-.57,2.51-.07,3.83Zm-36.07,0c0-.45.1-.75.1-1.05,0-9.09.07-18.18,0-27.26-.09-6.75-3.27-11.86-9-15.27-6.61-3.92-13.31-7.7-20-11.52-3.91-2.25-7.78-4.57-11.78-6.66a5.7,5.7,0,0,0-8.27,5.13c-.06,2.93,1.58,4.61,3.9,5.93q8.9,5.06,17.75,10.16a2.42,2.42,0,0,1,1.51,1.81,1.9,1.9,0,0,1-.74,1.9c-1,.76-1.95.29-2.85-.23q-9.3-5.4-18.6-10.83a9.71,9.71,0,0,1-3.92-12.28c1.75-3.95,5.13-5.39,9-5.92,1.21-.17,1.47-.62,1.31-1.69q-2.14-14.25-4.25-28.51c-.52-3.52-2.65-5.8-5.6-5.92-3.75-.16-6.4,2.5-6.41,6.47,0,17.09,0,34.19,0,51.29a10.19,10.19,0,0,0,4.32,8.82c8.2,6.14,16.33,12.37,24.49,18.56a5.81,5.81,0,0,1,2.69,5.35c-.17,2.5-.07,5-.08,7.54,0,1.37,0,2.73,0,4.18Z" transform="translate(-7122.07 -7120.73)"/><path class="b" d="M7231.66,7262.37h-26.57c-.5-1.32.08-2.57.07-3.83-.05-7.85,0-15.71,0-23.56,0-7.45,3.36-12.94,9.74-16.62q14.64-8.46,29.33-16.85c2-1.14,4-2.14,6.38-1.11a5.6,5.6,0,0,1,3.62,4.6,5.69,5.69,0,0,1-2.83,6c-3.83,2.28-7.7,4.49-11.57,6.71-2.4,1.38-4.82,2.72-7.21,4.11a2.5,2.5,0,0,0-1.48,1.67,1.92,1.92,0,0,0,.72,2.05c1,.71,1.86.32,2.72-.17,3.15-1.8,6.3-3.63,9.44-5.46s6.2-3.62,9.29-5.44a8.94,8.94,0,0,0,4.7-8.38c-.12-4.07-1.91-7.15-5.83-8.78a11.74,11.74,0,0,0-4-1.05c-1.37-.06-1.45-.74-1.28-1.82.72-4.65,1.38-9.3,2.09-13.95.79-5.21,1.51-10.42,2.43-15.6a5.69,5.69,0,0,1,6.37-4.74,6,6,0,0,1,5.32,6c.06,4.21,0,8.42,0,12.63,0,12.22-.21,24.45.09,36.66.14,5.68-1.72,9.66-6.41,12.95-7.71,5.4-15.07,11.3-22.58,17a5.86,5.86,0,0,0-2.59,5.25C7231.77,7254.48,7231.66,7258.33,7231.66,7262.37Z" transform="translate(-7122.07 -7120.73)"/><path class="b" d="M7195.59,7262.38h-26.47c0-1.45,0-2.81,0-4.18,0-2.52-.09-5,.08-7.54a5.81,5.81,0,0,0-2.69-5.35c-8.16-6.19-16.29-12.42-24.49-18.56a10.19,10.19,0,0,1-4.32-8.82c.05-17.1,0-34.2,0-51.29,0-4,2.66-6.63,6.41-6.47,2.95.12,5.08,2.4,5.6,5.92q2.1,14.27,4.25,28.51c.16,1.07-.1,1.52-1.31,1.69-3.91.53-7.29,2-9,5.92a9.71,9.71,0,0,0,3.92,12.28q9.3,5.42,18.6,10.83c.9.52,1.82,1,2.85.23a1.9,1.9,0,0,0,.74-1.9,2.42,2.42,0,0,0-1.51-1.81q-8.86-5.1-17.75-10.16c-2.32-1.32-4-3-3.9-5.93a5.7,5.7,0,0,1,8.27-5.13c4,2.09,7.87,4.41,11.78,6.66,6.67,3.82,13.37,7.6,20,11.52,5.76,3.41,8.94,8.52,9,15.27.12,9.08,0,18.17,0,27.26C7195.69,7261.63,7195.63,7261.93,7195.59,7262.38Z" transform="translate(-7122.07 -7120.73)"/><path class="c" d="M7193.13,7152.72c1.87-4,4.07-7.91,5.74-12,.46-1.14,1-2.26,1.56-3.66,1.65,2.55,3.22,4.9,4.72,7.3,5,7.89,9.65,15.93,13.88,24.24a95.8,95.8,0,0,1,5.5,12.8c2.74,8,.91,15.16-4.53,21.4-7.61,8.7-21.39,11.12-31.46,5.71a3.21,3.21,0,0,1,.77-1.47,38.59,38.59,0,0,0,6.49-11.78,54.59,54.59,0,0,0,2.65-25.64A53,53,0,0,0,7193.13,7152.72Z" transform="translate(-7122.07 -7120.73)"/><path class="d" d="M7193.13,7152.72a53,53,0,0,1,5.32,16.87,54.59,54.59,0,0,1-2.65,25.64,38.59,38.59,0,0,1-6.49,11.78,3.21,3.21,0,0,0-.77,1.47c-8.45-4.35-13.19-11.17-13.42-20.77a23.89,23.89,0,0,1,4-13.67C7183.75,7166.9,7188.89,7160.1,7193.13,7152.72Z" transform="translate(-7122.07 -7120.73)"/></svg>